<svg width="30" height="30" viewBox="0 0 30 30" fill="none" xmlns="http://www.w3.org/2000/svg">
<rect x="3" y="2" width="25" height="25" rx="3" fill="url(#paint0_linear)"/>
<path d="M10.584 22V7.7H14.808C15.8933 7.7 16.8833 7.832 17.778 8.096C18.6873 8.36 19.4647 8.778 20.11 9.35C20.7553 9.922 21.254 10.6553 21.606 11.55C21.9727 12.4447 22.156 13.5227 22.156 14.784C22.156 16.0453 21.98 17.1307 21.628 18.04C21.276 18.9493 20.7773 19.6973 20.132 20.284C19.5013 20.8707 18.746 21.3033 17.866 21.582C17.0007 21.8607 16.0547 22 15.028 22H10.584ZM14.368 18.964H14.588C15.1013 18.964 15.5853 18.9053 16.04 18.788C16.4947 18.656 16.8833 18.436 17.206 18.128C17.5433 17.82 17.8073 17.3947 17.998 16.852C18.1887 16.3093 18.284 15.62 18.284 14.784C18.284 13.948 18.1887 13.266 17.998 12.738C17.8073 12.21 17.5433 11.7993 17.206 11.506C16.8833 11.2127 16.4947 11.0147 16.04 10.912C15.5853 10.7947 15.1013 10.736 14.588 10.736H14.368V18.964Z" fill="#FAFAFA"/>
<defs>
<linearGradient id="paint0_linear" x1="4.5" y1="2" x2="26" y2="27" gradientUnits="userSpaceOnUse">
<stop stop-color="#34AAFF"/>
<stop offset="1" stop-color="#003DEB"/>
</linearGradient>
</defs>
</svg>
