<svg width="79" height="30" viewBox="0 0 79 30" fill="none" xmlns="http://www.w3.org/2000/svg">
<rect x="3" y="2" width="25" height="25" rx="3" fill="url(#paint0_linear)"/>
<path d="M9.584 22V7.7H13.808C14.8933 7.7 15.8833 7.832 16.778 8.096C17.6873 8.36 18.4647 8.778 19.11 9.35C19.7553 9.922 20.254 10.6553 20.606 11.55C20.9727 12.4447 21.156 13.5227 21.156 14.784C21.156 16.0453 20.98 17.1307 20.628 18.04C20.276 18.9493 19.7773 19.6973 19.132 20.284C18.5013 20.8707 17.746 21.3033 16.866 21.582C16.0007 21.8607 15.0547 22 14.028 22H9.584ZM13.368 18.964H13.588C14.1013 18.964 14.5853 18.9053 15.04 18.788C15.4947 18.656 15.8833 18.436 16.206 18.128C16.5433 17.82 16.8073 17.3947 16.998 16.852C17.1887 16.3093 17.284 15.62 17.284 14.784C17.284 13.948 17.1887 13.266 16.998 12.738C16.8073 12.21 16.5433 11.7993 16.206 11.506C15.8833 11.2127 15.4947 11.0147 15.04 10.912C14.5853 10.7947 14.1013 10.736 13.588 10.736H13.368V18.964ZM28.4952 22.264C27.6886 22.264 26.9406 22.1393 26.2512 21.89C25.5619 21.626 24.9606 21.252 24.4472 20.768C23.9486 20.2693 23.5526 19.6607 23.2592 18.942C22.9659 18.2233 22.8192 17.4093 22.8192 16.5C22.8192 15.6053 22.9659 14.806 23.2592 14.102C23.5672 13.3833 23.9632 12.7747 24.4472 12.276C24.9459 11.7773 25.5106 11.396 26.1412 11.132C26.7719 10.868 27.4246 10.736 28.0992 10.736C28.9059 10.736 29.6099 10.8753 30.2112 11.154C30.8126 11.4327 31.3112 11.814 31.7072 12.298C32.1032 12.782 32.3966 13.3467 32.5872 13.992C32.7926 14.6373 32.8952 15.3267 32.8952 16.06C32.8952 16.3973 32.8732 16.7127 32.8292 17.006C32.7999 17.2993 32.7706 17.512 32.7412 17.644H26.4712C26.6472 18.304 26.9626 18.766 27.4172 19.03C27.8719 19.2793 28.4072 19.404 29.0232 19.404C29.4046 19.404 29.7712 19.3527 30.1232 19.25C30.4899 19.1327 30.8712 18.964 31.2672 18.744L32.4992 20.988C31.8979 21.4133 31.2306 21.736 30.4972 21.956C29.7786 22.1613 29.1112 22.264 28.4952 22.264ZM26.4272 15.18H29.6832C29.6832 14.7547 29.5732 14.388 29.3532 14.08C29.1479 13.7573 28.7592 13.596 28.1872 13.596C27.7619 13.596 27.3879 13.7207 27.0652 13.97C26.7572 14.2193 26.5446 14.6227 26.4272 15.18ZM34.9713 22V11H38.0513L38.3153 12.892H38.4033C38.814 12.144 39.298 11.6013 39.8553 11.264C40.4273 10.912 40.9846 10.736 41.5273 10.736C41.8646 10.736 42.136 10.758 42.3413 10.802C42.5466 10.8313 42.73 10.8827 42.8913 10.956L42.2753 14.212C42.07 14.168 41.872 14.1313 41.6813 14.102C41.5053 14.058 41.2926 14.036 41.0433 14.036C40.6473 14.036 40.2293 14.1753 39.7893 14.454C39.364 14.718 39.0193 15.1947 38.7553 15.884V22H34.9713ZM47.5106 22.264C46.9093 22.264 46.3886 22.1613 45.9486 21.956C45.5233 21.736 45.1713 21.4353 44.8926 21.054C44.614 20.658 44.4086 20.1887 44.2766 19.646C44.1446 19.0887 44.0786 18.4653 44.0786 17.776V11H47.8626V17.292C47.8626 17.996 47.9506 18.4653 48.1266 18.7C48.3026 18.9347 48.5813 19.052 48.9626 19.052C49.3146 19.052 49.6006 18.9787 49.8206 18.832C50.0553 18.6853 50.2973 18.436 50.5466 18.084V11H54.3306V22H51.2506L50.9866 20.548H50.8986C50.4586 21.076 49.9673 21.494 49.4246 21.802C48.8966 22.11 48.2586 22.264 47.5106 22.264ZM56.8854 22V11H59.9654L60.2294 12.342H60.3174C60.7574 11.9167 61.2267 11.5427 61.7254 11.22C62.2387 10.8973 62.8694 10.736 63.6174 10.736C64.3654 10.736 64.9814 10.89 65.4654 11.198C65.964 11.4913 66.36 11.924 66.6534 12.496C67.108 12.0267 67.5994 11.616 68.1274 11.264C68.6554 10.912 69.2934 10.736 70.0414 10.736C71.244 10.736 72.124 11.1467 72.6814 11.968C73.2387 12.7747 73.5174 13.86 73.5174 15.224V22H69.7334V15.708C69.7334 15.004 69.6454 14.5347 69.4694 14.3C69.2934 14.0653 69.0147 13.948 68.6334 13.948C68.164 13.948 67.6507 14.2267 67.0934 14.784V22H63.3094V15.708C63.3094 15.004 63.2214 14.5347 63.0454 14.3C62.8694 14.0653 62.5907 13.948 62.2094 13.948C61.74 13.948 61.2267 14.2267 60.6694 14.784V22H56.8854Z" fill="#FAFAFA"/>
<defs>
<linearGradient id="paint0_linear" x1="4.5" y1="2" x2="26" y2="27" gradientUnits="userSpaceOnUse">
<stop stop-color="#34AAFF"/>
<stop offset="1" stop-color="#003DEB"/>
</linearGradient>
</defs>
</svg>
